<?xml version="1.0" encoding="UTF-8"?>
<svg id="Layer_1" data-name="Layer 1" xmlns="http://www.w3.org/2000/svg" viewBox="0 0 272.24 79.24">
  <defs>
    <style>
      .cls-1 {
        fill: #f9d523;
      }
    </style>
  </defs>
  <path class="cls-1" d="m32.04,76.94s0,0,0,0c7.31.76,14.64,1.35,21.98,1.75,4.44.24,8.87.43,13.32.5,6.4.11,12.79-.02,19.19-.15,5.52-.11,11.04-.18,16.56-.27,4.42-.07,8.85-.15,13.27-.24,5.1-.1,10.19-.16,15.29-.31,11.72-.34,23.43-.67,35.15-.97,4.66-.12,9.31-.18,13.97-.23,3.39-.04,6.77-.08,10.16-.11,1.53-.02,3.06.02,4.59.04,3.73.05,7.47.11,11.2.16,1.62.02,3.25.03,4.87.11,5.39.27,10.79.49,16.19.82,5.9.36,11.81.62,17.71.8,5.14.16,10.29.28,15.43.24,3.78-.03,7.58-.13,11.34-.6,0,0,0,0,0,0-2.48-.37-4.96-.77-7.44-1.1.07,0,.14.02.22.03-5.46-.78-10.95-1.4-16.43-1.93-4.27-.42-8.54-.8-12.81-1.14,1.59-.07,3.18-.14,4.77-.22,2.25-.11,4.5-.24,6.76-.35,2.87-.13,5.75-.33,8.62-.47,5.21-.26,10.41-.63,15.6-1.13,0,0,0,0,0,0-5.26-.53-10.56-.58-15.84-.68-5.6-.11-11.21-.12-16.82-.08-5.33.03-10.67.13-16,.28-4.77.14-9.54.27-14.32.36-3.86.08-7.72.15-11.59.23-1.88.04-3.77.1-5.65.11-6.32.03-12.63.06-18.95.08-1.6,0-3.2.03-4.8.02-2.78-.03-5.57-.06-8.35-.09-3.72-.04-7.44-.08-11.15-.11-1.35-.02-2.7-.02-4.05-.06-6.63-.16-13.26-.32-19.89-.48-5.27-.13-10.53-.36-15.79-.54-9.87-.35-19.75-.73-29.63-1.02-5.22-.16-10.45-.27-15.67-.31-1.35-.01-2.69-.02-4.04-.02-2.39,0-4.77.02-7.16.05-1.83.02-3.65.09-5.48.08-6.13,0-12.27.15-18.4.18,0,0,0,0,0,0,1.61.27,3.22.53,4.84.74,1.64.22,3.29.42,4.93.63,3.04.38,6.08.72,9.12,1.05.56.06,1.13.09,1.69.14,1.62.13,3.24.25,4.86.36,3.57.25,7.14.47,10.72.65,2.01.1,4.03.17,6.04.22-9.87.35-19.73,1.06-29.55,2.06-2.86.29-5.72.58-8.57.91Z"/>
</svg>